<svg xmlns="http://www.w3.org/2000/svg" width="37" height="36" fill="none"><path fill="url(#a)" d="m2.677 34.14 2.303-8.394a16.177 16.177 0 0 1-2.166-8.087c0-8.923 7.268-16.192 16.191-16.192 4.334 0 8.394 1.69 11.465 4.743a16.109 16.109 0 0 1 4.744 11.449c0 8.923-7.269 16.191-16.192 16.191-2.713 0-5.374-.682-7.746-1.979l-8.599 2.27z"/><path fill="url(#pattern0)" d="M.92 0h36v36h-36z"/><path fill="url(#b)" d="m2.097 34.72 2.389-8.684a16.736 16.736 0 0 1-2.236-8.377C2.233 8.394 9.758.87 19.005.87c4.487 0 8.701 1.74 11.875 4.914a16.673 16.673 0 0 1 4.914 11.875c0 9.247-7.525 16.771-16.772 16.771-2.815 0-5.562-.7-8.019-2.047L2.097 34.72zm9.299-5.357.511.307a13.955 13.955 0 0 0 7.098 1.945c7.678 0 13.94-6.261 13.94-13.94 0-3.719-1.45-7.233-4.078-9.86a13.89 13.89 0 0 0-9.862-4.096c-7.695 0-13.956 6.262-13.956 13.94 0 2.627.733 5.204 2.132 7.422l.324.529-1.416 5.152 5.306-1.399z"/><path fill="url(#pattern1)" d="M8.939 8.531h20.133v18.938H8.939z"/><path fill="#fff" fill-rule="evenodd" d="M14.825 10.63c-.307-.7-.648-.717-.938-.717-.256-.017-.53-.017-.82-.017-.272 0-.733.102-1.126.529-.392.426-1.467 1.433-1.467 3.497 0 2.065 1.502 4.061 1.706 4.334.205.273 2.9 4.64 7.166 6.33 3.55 1.399 4.266 1.126 5.033 1.04.768-.085 2.474-1.006 2.833-1.996.34-.972.34-1.825.239-1.996-.103-.17-.393-.273-.802-.495-.427-.204-2.474-1.228-2.867-1.365-.392-.136-.665-.204-.938.205-.273.427-1.075 1.365-1.33 1.638-.24.273-.496.307-.905.102-.427-.204-1.775-.648-3.378-2.081-1.246-1.11-2.082-2.491-2.338-2.9-.239-.427-.034-.649.188-.854.188-.187.426-.494.631-.733.205-.24.273-.427.427-.7.136-.273.068-.529-.034-.733-.103-.188-.905-2.253-1.28-3.089z" clip-rule="evenodd"/><defs><linearGradient id="a" x1="18.942" x2="18.942" y1="34.138" y2="1.461" gradientUnits="userSpaceOnUse"><stop stop-color="#20B038"/><stop offset="1" stop-color="#60D66A"/></linearGradient><linearGradient id="b" x1="18.942" x2="18.942" y1="34.724" y2=".875" gradientUnits="userSpaceOnUse"><stop stop-color="#F9F9F9"/><stop offset="1" stop-color="#fff"/></linearGradient></defs></svg>